<?xml version="1.0" encoding="utf-8"?>
<!-- Generator: Adobe Illustrator 24.0.2, SVG Export Plug-In . SVG Version: 6.00 Build 0)  -->
<svg version="1.1" id="Layer_1" xmlns="http://www.w3.org/2000/svg" xmlns:xlink="http://www.w3.org/1999/xlink" x="0px" y="0px"
	 viewBox="0 0 1200 900" style="enable-background:new 0 0 1200 900;" xml:space="preserve">
<style type="text/css">
	.st0{fill:#F7BD01;}
	.st1{fill:#1B75BC;}
</style>
<g>
	<g>
		<g>
			<g>
				<polygon class="st0" points="354.93,487.05 373.41,487.04 374.84,485.62 374.84,467.14 373.41,465.71 354.93,465.71 
					353.5,467.14 353.5,485.62 				"/>
				<polygon class="st0" points="331.75,463.85 350.23,463.84 351.65,462.42 351.66,443.94 350.23,442.51 331.75,442.51 
					330.32,443.94 330.32,462.42 				"/>
				<polygon class="st0" points="373.41,419.32 354.93,419.32 353.5,420.74 353.5,439.22 354.93,440.65 373.41,440.65 
					374.84,439.22 374.84,420.75 				"/>
				<path class="st0" d="M330.43,439.35l1.31,1.31l18.48,0l1.43-1.43v-18.48l-1.31-1.31C339.85,420.49,331.48,428.85,330.43,439.35z
					"/>
				<path class="st0" d="M350.34,486.9l1.31-1.31l0-18.48l-1.43-1.43h-18.48l-1.31,1.31C331.48,477.48,339.85,485.85,350.34,486.9z"
					/>
				<polygon class="st0" points="396.58,463.85 378.11,463.84 376.68,462.42 376.68,443.94 378.11,442.51 396.58,442.51 
					398.01,443.94 398.01,462.42 				"/>
				<path class="st0" d="M397.91,439.35l-1.31,1.31l-18.48,0l-1.43-1.43v-18.48l1.31-1.31
					C388.49,420.49,396.86,428.85,397.91,439.35z"/>
				<path class="st0" d="M377.99,486.9l-1.31-1.31l0-18.48l1.43-1.43h18.48l1.31,1.31C396.85,477.48,388.48,485.85,377.99,486.9z"/>
			</g>
			<path class="st0" d="M298.1,485.27h-58.2v-13.83h57.6c2.7,0,4.93-0.89,6.68-2.68c1.75-1.79,2.62-4.15,2.62-7.1
				c0-2.94-0.88-5.31-2.62-7.1c-1.75-1.79-3.98-2.68-6.68-2.68h-35.9c-2.38,0-4.87-0.36-7.45-1.07c-2.58-0.72-5.13-2.07-7.63-4.05
				c-2.5-1.99-4.39-4.51-5.66-7.57c-1.27-3.06-1.91-6.18-1.91-9.36c0-6.52,2.13-11.82,6.38-15.92c4.25-4.09,9.68-6.14,16.28-6.14
				h58.55v13.83h-57.96c-2.62,0-4.75,0.83-6.38,2.5c-1.63,1.67-2.44,3.94-2.44,6.8c0,2.78,0.81,5.03,2.44,6.74
				c1.63,1.71,3.76,2.56,6.38,2.56h35.9c3.26,0,6.14,0.48,8.65,1.43c2.5,0.95,4.75,2.23,6.74,3.82c1.99,1.59,3.78,3.86,5.37,6.8
				c1.59,2.94,2.38,6.44,2.38,10.5c0,3.26-0.5,6.12-1.49,8.59c-1,2.47-2.31,4.65-3.94,6.56c-1.63,1.91-3.96,3.62-6.98,5.13
				C305.81,484.51,302.24,485.27,298.1,485.27z"/>
			<path class="st0" d="M423.08,485.27h-13.83v-83.6h13.83V485.27z"/>
			<path class="st0" d="M498.33,485.27h-46.15c-5.88,0-10.37-1.55-13.48-4.65c-3.1-3.1-4.65-7.19-4.65-12.28
				c0-5.25,1.55-9.42,4.65-12.52c3.1-3.1,7.59-4.65,13.48-4.65h25.88v8.94h-22.9c-2.62,0-4.61,0.64-5.96,1.91
				c-1.35,1.27-2.03,3.02-2.03,5.25c0,2.23,0.67,3.98,2.03,5.25c1.35,1.27,3.3,1.91,5.84,1.91h29.69v-20.15
				c0-4.77-1.29-8.43-3.88-10.97c-2.58-2.54-6.42-3.82-11.51-3.82h-32.08v-11.93h32.32c9.46,0,16.62,2.37,21.47,7.1
				c4.85,4.73,7.27,11.55,7.27,20.45V485.27z"/>
			<path class="st0" d="M523.96,485.27h-13.83v-30.17c0-8.82,2.46-15.62,7.39-20.39c4.93-4.77,12.04-7.16,21.35-7.16h16.22v12.64
				h-15.86c-4.93,0-8.71,1.27-11.33,3.82c-2.62,2.55-3.93,6.2-3.93,10.97V485.27z"/>
		</g>
	</g>
	<path class="st1" d="M619.09,485.27h-3.34c-1.43,0-2.72-0.36-3.88-1.07c-1.15-0.72-2.09-1.71-2.8-2.98l-41.38-73.46h16.22
		l33.39,60.46l33.63-60.46h16.1l-41.38,73.46c-0.72,1.27-1.65,2.27-2.8,2.98C621.7,484.91,620.44,485.27,619.09,485.27z"/>
	<path class="st1" d="M683.01,419.32h-2.15c-1.83,0-3.34-0.58-4.53-1.73c-1.19-1.15-1.79-2.64-1.79-4.47c0-1.83,0.6-3.32,1.79-4.47
		c1.19-1.15,2.7-1.73,4.53-1.73h2.15c1.83,0,3.32,0.58,4.47,1.73c1.15,1.15,1.73,2.64,1.73,4.47c0,1.83-0.58,3.32-1.73,4.47
		C686.33,418.74,684.84,419.32,683.01,419.32z"/>
	<rect x="675.02" y="427.55" class="st1" width="13.83" height="57.72"/>
	<path class="st1" d="M744.19,485.27h-45.32v-11.45h42.69c2.31,0,4.09-0.54,5.37-1.61c1.27-1.07,1.91-2.64,1.91-4.71
		c0-1.99-0.62-3.56-1.85-4.71c-1.23-1.15-3.04-1.73-5.43-1.73h-25.4c-5.49,0-9.86-1.65-13.12-4.95c-3.26-3.3-4.89-7.33-4.89-12.1
		c0-1.83,0.3-3.68,0.89-5.55c0.6-1.87,1.63-3.62,3.1-5.25c1.47-1.63,3.4-2.98,5.78-4.05c2.39-1.07,5.13-1.61,8.23-1.61h43.17v11.57
		h-40.78c-2.23,0-3.99,0.52-5.31,1.55c-1.31,1.03-1.97,2.55-1.97,4.53c0,1.91,0.64,3.4,1.91,4.47c1.27,1.07,3.06,1.61,5.37,1.61
		h25.64c2.78,0,5.56,0.56,8.35,1.67c2.78,1.11,5.09,3.1,6.92,5.96c1.83,2.86,2.74,6.08,2.74,9.66c0,5.01-1.69,9.04-5.07,12.1
		C753.75,483.74,749.44,485.27,744.19,485.27z"/>
	<path class="st1" d="M810.85,485.27h-20.03c-6.84,0-12.04-1.85-15.62-5.55c-3.58-3.7-5.37-8.92-5.37-15.68v-52.83h13.71v16.34h27.9
		v11.57h-27.9v23.97c0,3.42,0.91,6.06,2.74,7.93c1.83,1.87,4.45,2.8,7.87,2.8h16.7V485.27z"/>
	<path class="st1" d="M885.26,485.27h-46.15c-5.88,0-10.37-1.55-13.48-4.65c-3.1-3.1-4.65-7.19-4.65-12.28
		c0-5.25,1.55-9.42,4.65-12.52c3.1-3.1,7.59-4.65,13.48-4.65h25.88v8.94h-22.9c-2.62,0-4.61,0.64-5.96,1.91
		c-1.35,1.27-2.03,3.02-2.03,5.25c0,2.23,0.67,3.98,2.03,5.25c1.35,1.27,3.3,1.91,5.84,1.91h29.69v-20.15
		c0-4.77-1.29-8.43-3.88-10.97c-2.58-2.54-6.42-3.82-11.51-3.82h-32.08v-11.93h32.32c9.46,0,16.62,2.37,21.47,7.1
		c4.85,4.73,7.27,11.55,7.27,20.45V485.27z"/>
	<g>
		<g>
			<g>
				<path class="st0" d="M946.36,398.44c0.98-1.14,0.2-2.53-1.27-2.24l-34.35,6.87c5.56,6.32,10.01,13.67,13.04,21.74L946.36,398.44
					z"/>
				<path class="st0" d="M905.27,502.5c-6.21,5.66-13.44,10.2-21.36,13.28l25.9,23.01c1.12,0.99,2.48,0.19,2.19-1.29L905.27,502.5z"
					/>
				<path class="st0" d="M907.18,359.66L880.8,383.1c8.07,2.69,15.5,6.87,21.96,12.23l6.61-34.37
					C909.66,359.47,908.3,358.67,907.18,359.66z"/>
				<path class="st0" d="M859.19,520.42c-3.7,0-7.34-0.29-10.88-0.87l11.13,33.11c0.49,1.44,2.06,1.44,2.54,0l11.34-33.71
					C868.76,519.92,864.04,520.42,859.19,520.42z"/>
				<path class="st0" d="M927.48,461.08L960,449.74c1.4-0.49,1.4-2.09,0-2.58l-33.1-11.54c0.94,4.63,1.44,9.45,1.44,14.37
					C928.34,453.77,928.05,457.47,927.48,461.08z"/>
				<path class="st0" d="M924.88,472.02c-2.65,8.22-6.75,15.78-12.01,22.35l33.73,6.74c1.46,0.29,2.25-1.09,1.27-2.24L924.88,472.02
					z"/>
				<path class="st0" d="M856.4,347.33l-11.34,33.71c4.56-0.96,9.29-1.47,14.13-1.47c3.7,0,7.34,0.29,10.88,0.87l-11.13-33.11
					C858.46,345.9,856.89,345.9,856.4,347.33z"/>
				<path class="st0" d="M809,539.04c-0.28,1.49,1.08,2.29,2.2,1.29l26.37-23.44c-8.07-2.7-15.49-6.88-21.95-12.23L809,539.04z"/>
				<path class="st0" d="M813.11,397.5c6.21-5.66,13.44-10.2,21.36-13.28l-25.9-23.01c-1.12-0.99-2.48-0.19-2.19,1.29L813.11,397.5z
					"/>
			</g>
		</g>
		<path class="st0" d="M827.56,504.27c9.24,5.59,20.04,8.8,31.57,8.8c34.2,0,61.93-28.24,61.93-63.07s-27.73-63.06-61.93-63.06
			c-11.51,0-22.29,3.2-31.52,8.78c7.32-2.96,15.35-4.59,23.79-4.59c33.92,0,61.42,26.36,61.42,58.88c0,32.52-27.5,58.88-61.42,58.88
			C842.94,508.87,834.89,507.23,827.56,504.27z"/>
	</g>
</g>
</svg>
